<?xml version="1.0" encoding="utf-8"?>
<!-- Generator: Adobe Illustrator 24.1.2, SVG Export Plug-In . SVG Version: 6.00 Build 0)  -->
<svg version="1.1" id="Слой_1" xmlns="http://www.w3.org/2000/svg" xmlns:xlink="http://www.w3.org/1999/xlink" x="0px" y="0px"
	 viewBox="0 0 512 512" style="enable-background:new 0 0 512 512;" xml:space="preserve">
<style type="text/css">
	.st0{fill:#C41212;}
	.st1{fill:#8C0000;}
</style>
<g transform="translate(0,0)">
	<g id="XMLID_1_">
		<g>
			<path class="st0" d="M416,39c41,45.9,60.2,113.4,61.5,171.4c-49.3,20.6-80.3,41-93.2,63.3c-6.7,11.6-7.7,25.1-1.5,36
				c4.6,8.2,12.3,14.6,22.4,20c-34.3,41.4-94.1,59-153.9,56.8c-58.8-2.1-116.4-23.8-147.1-56.5c10-5.4,17.8-11.9,22.9-19.8
				c6.9-10.7,7.6-24.1,2.3-36.2c-10.2-23.2-38.6-44-85-63.5c1.2-61.9,20.4-125.7,62.7-170.3c6.9,18.2,20.4,34.3,38.4,47.1
				C164.9,67,208.8,53,259.7,53c51.6,0,95.8,14.4,114.8,35C393.7,74.5,408.2,57.7,416,39L416,39z M432.3,194.1
				c-3.7-42.8-17.1-68.5-37.4-81.3h0c-19,29.4-55.2,63-106,75.4c10.9,18.8,24.3,29.4,38.6,34.4c1.8-47.3,58.7-43.1,55.4-2.7
				C401,213.6,418.3,203.5,432.3,194.1z M287.2,343.3c44.5,0-2.4-83.5-25.9-113.4c-24.7,28.5-71.7,113.7-24.8,113.7
				c8.1,0,12.7-11.6,16.1-27.4c3.5-15.8,5.8-35.8,9.3-52.4C269.8,296.7,272.9,343.3,287.2,343.3z M201.1,220
				c11.9-5.7,22.9-15.8,32.2-31.8c-50.9-12.5-87-46.1-106.1-75.4c-20.3,12.7-33.7,38.5-37.4,81.3c15.8,10.6,35.7,22.1,56.4,28.1
				C140.7,180.5,197.3,174.8,201.1,220z"/>
			<path class="st1" d="M412.9,349.2c10.5,49.8-10,103.2-39,125.2c8.4-35,8.9-68.8,2.3-96.8C389.7,370,402.1,360.5,412.9,349.2z"/>
			<path class="st1" d="M353.7,388.5c1.7,42.5-8.4,82.1-29.4,100.1c3-31.5,0.2-62.5-5.6-89.3C330.7,396.6,342.5,393,353.7,388.5
				L353.7,388.5z"/>
			<path class="st1" d="M303.6,402.1c0.9,37.2-6.8,71.3-21,99c-2-26.3-5.5-63.7-11.4-96C282.1,404.8,293,403.8,303.6,402.1z"/>
			<path class="st1" d="M250.7,405.2c1.2,0,2.4,0.1,3.6,0.1c-5.8,32.3-9.4,69.6-11.4,95.9c-14.2-27.6-21.9-61.5-21-98.4
				C231.5,404,241.1,404.8,250.7,405.2z"/>
			<path class="st1" d="M204.8,400c-5.8,26.7-8.5,57.4-5.5,88.6c-20.7-17.6-30.7-56.1-29.5-97.8C181.1,394.6,192.8,397.6,204.8,400z
				"/>
			<path class="st1" d="M145.2,381.1c-5.8,27.3-5,59.8,3,93.4c-27.2-20.7-47-69-40.6-116.1C118.7,367.1,131.4,374.7,145.2,381.1z"/>
		</g>
	</g>
</g>
</svg>
