<?xml version="1.0" encoding="utf-8"?>
<!-- Generator: Adobe Illustrator 24.1.2, SVG Export Plug-In . SVG Version: 6.00 Build 0)  -->
<svg version="1.1" id="Слой_1" xmlns="http://www.w3.org/2000/svg" xmlns:xlink="http://www.w3.org/1999/xlink" x="0px" y="0px"
	 viewBox="0 0 512 512" style="enable-background:new 0 0 512 512;" xml:space="preserve">
<style type="text/css">
	.st0{fill:#FFCB27;}
	.st1{fill:#FFF924;}
</style>
<g id="Sun">
	<g>
		<path class="st0" d="M467.2,131.8c-45.2-2.8-45,66.7-87.3,91.6c-6.4-26-21.1-49.9-42.5-67.3c51.1,10.1,64-35.4,96.6-36.2
			C443.2,119.6,453.8,122.9,467.2,131.8z"/>
		<path class="st0" d="M491.9,315.1c-30-34-79,15.4-126.5,3.2c2.6-4.4,5.1-9,7.2-13.8l0.2-0.4c9.2-20.7,12.2-42.6,10-63.6
			C420,296,477.3,242.7,491.9,315.1z"/>
		<path class="st0" d="M355.6,332.3c-13.1,65.6,65.2,68.4,24.3,129.9c2.8-45.2-66.7-45-91.7-87.2
			C314.4,368.5,338.2,353.8,355.6,332.3z"/>
		<path class="st1" d="M362.2,229.3c5,21.7,3.3,45.2-6.4,67.2c-1.5,3.4-3.2,6.8-5,9.9l-38.4-12.7l19.2,37.1
			c-19.9,18.8-46.3,29.3-73.6,29.2l-9.1-43.8l-24.5,38.3c-3.1-1-6.2-2.3-9.3-3.6c-23-10.2-40.6-27.4-51.4-48l34-30.3l-44.8-2.1
			c-3.2-19.8-0.9-40.6,7.8-60.4c2.7-6,5.8-11.7,9.4-16.9l39.8,13.1l-18.6-36.1c18.4-14.8,41.3-23.2,64.9-23.6h0c1.3,0,2.6,0,3.9,0
			c0.5,0,1,0,1.5,0l9.9,47.8l25.9-40.3c1.4,0.6,2.8,1.1,4.1,1.7c22.6,10,40,26.9,50.9,47.1l-27.7,24.7L362.2,229.3z"/>
		<path class="st0" d="M320.1,19.7c-34,29.9,15.3,78.8,3.2,126.3c-4.5-2.7-9.3-5.2-14.3-7.4c-15.8-7-32.3-10.5-48.6-10.7
			c-4.9-0.1-9.8,0.1-14.6,0.6C300.8,91.4,247.8,34.3,320.1,19.7z"/>
		<path class="st0" d="M207.4,368c20.7,9.2,42.6,12.3,63.6,10.1c-55.3,37.1-2.2,94.3-74.5,108.9c33.9-29.9-15.2-78.8-3.1-126.3
			C197.9,363.4,202.6,365.8,207.4,368z"/>
		<path class="st0" d="M228.3,131.6c-26,6.4-49.8,21.1-67.1,42.3c12.6-65.1-65.2-68.1-24.4-129.4C133.9,89.6,203.3,89.4,228.3,131.6
			z"/>
		<path class="st0" d="M179,350.6c-65.3-12.8-68.2,65.1-129.6,24.3c45.2,2.8,45-66.5,87.1-91.5C143,309.4,157.7,333.2,179,350.6z"/>
		<path class="st0" d="M150.9,188.4c-2.7,4.5-5.2,9.2-7.4,14.1c-9.1,20.6-12.2,42.4-10.1,63.4c-37.1-55-94.2-2.1-108.8-74.3
			c26.2,29.8,67.1-4.4,108.7-5.1C139.2,186.4,145.1,187,150.9,188.4z"/>
	</g>
</g>
</svg>
